<svg width="1034" height="687" viewBox="0 0 1034 687" fill="none" xmlns="http://www.w3.org/2000/svg">
<rect x="0.00244141" y="0.300781" width="1032.82" height="686.699" fill="url(#paint0_radial_352_2)"/>
<path d="M1034 454.028L1034 25.6307L812.79 187.958C742.425 228.641 594.547 308.178 565.951 300.855C537.356 293.532 527.959 222.539 526.835 187.958C529.757 171.481 545.044 133.89 582.812 115.338C620.579 96.7862 638.564 30.7162 642.835 0.000152375L116.112 0.000193183C84.2788 63.3339 25.5142 94.8479 0.110904 102.688L0.11094 466.843C15.3979 443.45 52.9856 389.951 81.0415 363.1C109.097 336.249 210.531 298.617 257.74 283.157C294.384 276.648 382.913 262.043 443.881 255.696C504.848 249.349 469.284 310.822 443.881 342.352C419.601 366.762 364.704 431.327 339.345 494.305C313.987 557.283 372.392 615.338 404.764 636.493C655.11 782.466 928.565 575.671 1034 454.028Z" fill="url(#paint1_linear_352_2)"/>
<g filter="url(#filter0_b_352_2)">
<rect x="1033.89" width="686.699" height="1033.89" transform="rotate(90 1033.89 0)" fill="white" fill-opacity="0.03"/>
</g>
<defs>
<filter id="filter0_b_352_2" x="-20" y="-20" width="1073.89" height="726.699" filterUnits="userSpaceOnUse" color-interpolation-filters="sRGB">
<feFlood flood-opacity="0" result="BackgroundImageFix"/>
<feGaussianBlur in="BackgroundImageFix" stdDeviation="10"/>
<feComposite in2="SourceAlpha" operator="in" result="effect1_backgroundBlur_352_2"/>
<feBlend mode="normal" in="SourceGraphic" in2="effect1_backgroundBlur_352_2" result="shape"/>
</filter>
<radialGradient id="paint0_radial_352_2" cx="0" cy="0" r="1" gradientUnits="userSpaceOnUse" gradientTransform="translate(552.816 364.55) rotate(147.611) scale(843.868 1074.2)">
<stop offset="0.237157" stop-color="white"/>
<stop offset="0.737215" stop-color="#DCDCDC"/>
</radialGradient>
<linearGradient id="paint1_linear_352_2" x1="1255.14" y1="826.298" x2="636.616" y2="-530.914" gradientUnits="userSpaceOnUse">
<stop stop-color="#BB46BD"/>
<stop offset="0.914" stop-color="#463E9F"/>
<stop offset="1" stop-color="#423E9E"/>
</linearGradient>
</defs>
</svg>
