<svg width="259" height="32" viewBox="0 0 259 32" fill="none" xmlns="http://www.w3.org/2000/svg">
<path d="M30.7176 15.6336C30.7176 23.9925 23.9524 30.7673 15.6088 30.7673C7.26519 30.7673 0.5 23.9925 0.5 15.6336C0.5 7.27481 7.26519 0.5 15.6088 0.5C23.9524 0.5 30.7176 7.27481 30.7176 15.6336Z" fill="url(#paint0_linear_344_2)" stroke="black"/>
<path d="M27.3759 6.25342H3.85146C3.51813 6.25342 3.20672 6.4195 3.02102 6.69632L2.26936 7.81678L2.14013 8.07565C1.80824 8.74051 2.29175 9.52228 3.03485 9.52228L13.0561 9.52227C13.6047 9.52227 14.0509 9.96437 14.056 10.513L14.1793 23.8494C14.1845 24.4103 13.7274 24.8657 13.1665 24.8585L8.65472 24.8006L5.10204 24.755C4.30434 24.7447 3.84952 25.6623 4.34071 26.2909C4.37866 26.3395 4.42125 26.3843 4.46788 26.4246L5.67694 27.4704C5.85865 27.6276 6.09089 27.7141 6.33115 27.7141H24.8698C25.1188 27.7141 25.3589 27.6212 25.543 27.4535L26.773 26.3336C26.8028 26.3065 26.8305 26.2773 26.8561 26.2462C27.3074 25.6978 26.9173 24.8716 26.2071 24.8716H18.1686C17.6163 24.8716 17.1686 24.4239 17.1686 23.8716V10.5223C17.1686 9.96998 17.6163 9.52227 18.1686 9.52227H28.1807C28.9238 9.52227 29.4073 8.74049 29.0754 8.07562L28.9462 7.81678L28.2104 6.70241C28.0253 6.42208 27.7118 6.25342 27.3759 6.25342Z" fill="white" stroke="black" stroke-width="0.5"/>
<path d="M8.79688 24.7297V9.66455H10.9253L20.4325 22.2188V9.66455H22.4191V24.7297H20.4325C20.2374 24.7297 10.9253 12.0359 10.9253 12.0359L10.7835 24.7297H8.79688Z" fill="white" stroke="black"/>
<path d="M42.2324 22.7588V25H33.9004V22.7588H36.8799V9.5752H33.9004V7.33398H42.2324V9.5752H39.2529V22.7588H42.2324ZM61.4225 7.33398V25H60.526L49.0562 12.3701V25H46.6832V7.33398H47.5797L59.0494 20.1221V7.33398H61.4225ZM73.5988 6.93848C74.882 6.93848 75.9279 7.11426 76.7365 7.46582C77.5627 7.81738 78.2834 8.27441 78.8986 8.83691V11.4473C78.5119 11.166 78.0725 10.8584 77.5803 10.5244C77.1057 10.1904 76.5432 9.90039 75.8928 9.6543C75.26 9.39062 74.4953 9.25879 73.5988 9.25879C72.2805 9.25879 71.1027 9.55762 70.0656 10.1553C69.0285 10.7529 68.2111 11.5791 67.6135 12.6338C67.0158 13.6709 66.717 14.8486 66.717 16.167C66.717 17.4854 67.0158 18.6631 67.6135 19.7002C68.2111 20.7373 69.0285 21.5635 70.0656 22.1787C71.1027 22.7764 72.2805 23.0752 73.5988 23.0752C74.9523 23.0752 76.1037 22.8555 77.0529 22.416C78.0197 21.959 78.8107 21.4932 79.426 21.0186V23.3916C78.8107 23.9365 78.0021 24.4111 77.0002 24.8154C76.0158 25.2021 74.882 25.3955 73.5988 25.3955C72.2629 25.3955 71.0324 25.1582 69.9074 24.6836C68.7824 24.1914 67.798 23.5234 66.9543 22.6797C66.1105 21.8359 65.4514 20.8604 64.9768 19.7529C64.5197 18.6279 64.2912 17.4326 64.2912 16.167C64.2912 14.9014 64.5197 13.7148 64.9768 12.6074C65.4514 11.4824 66.1105 10.498 66.9543 9.6543C67.798 8.81055 68.7824 8.15137 69.9074 7.67676C71.0324 7.18457 72.2629 6.93848 73.5988 6.93848ZM84.6678 7.33398V22.7588H94.3973V25H82.2947V7.33398H84.6678ZM112.005 7.28125V18.0127C112.005 19.542 111.68 20.8604 111.03 21.9678C110.397 23.0576 109.536 23.8926 108.446 24.4727C107.356 25.0527 106.117 25.3428 104.728 25.3428C103.357 25.3428 102.118 25.0527 101.01 24.4727C99.9203 23.8926 99.0502 23.0576 98.3998 21.9678C97.767 20.8604 97.4506 19.542 97.4506 18.0127V7.28125H99.8236V17.9336C99.8236 19.1289 100.043 20.0957 100.483 20.834C100.94 21.5723 101.537 22.1084 102.276 22.4424C103.032 22.7588 103.849 22.917 104.728 22.917C105.607 22.8994 106.415 22.7324 107.154 22.416C107.91 22.082 108.507 21.5547 108.947 20.834C109.404 20.0957 109.632 19.1289 109.632 17.9336V7.28125H112.005ZM120.464 7.07031C121.501 7.07031 122.354 7.21973 123.021 7.51855C123.707 7.81738 124.305 8.13379 124.814 8.46777V10.9199C124.322 10.5508 123.725 10.208 123.021 9.8916C122.318 9.55762 121.554 9.39062 120.728 9.39062C120.2 9.39062 119.646 9.4873 119.066 9.68066C118.504 9.85645 118.029 10.1465 117.643 10.5508C117.256 10.9551 117.062 11.4736 117.062 12.1064C117.062 12.8096 117.317 13.3457 117.827 13.7148C118.337 14.084 118.952 14.4355 119.673 14.7695L122.099 15.877C123.312 16.4219 124.226 17.0283 124.841 17.6963C125.456 18.3643 125.764 19.252 125.764 20.3594C125.764 21.3262 125.482 22.1787 124.92 22.917C124.357 23.6377 123.619 24.209 122.705 24.6309C121.791 25.0527 120.789 25.2637 119.699 25.2637C118.68 25.2637 117.739 25.0879 116.878 24.7363C116.017 24.3848 115.27 23.9893 114.637 23.5498V21.0977C115.322 21.5723 116.104 22.0029 116.983 22.3896C117.88 22.7588 118.891 22.9434 120.016 22.9434C120.895 22.9434 121.668 22.7236 122.336 22.2842C123.004 21.8447 123.338 21.2383 123.338 20.4648C123.338 20.0254 123.197 19.6475 122.916 19.3311C122.652 19.0146 122.327 18.7422 121.94 18.5137C121.554 18.2852 121.176 18.0918 120.807 17.9336L117.88 16.6152C116.614 16.0527 115.753 15.3936 115.296 14.6377C114.839 13.8818 114.61 13.0117 114.61 12.0273C114.61 11.0957 114.874 10.2607 115.401 9.52246C115.946 8.7666 116.667 8.16895 117.563 7.72949C118.46 7.29004 119.427 7.07031 120.464 7.07031ZM136.964 22.7588V25H128.632V22.7588H131.612V9.5752H128.632V7.33398H136.964V9.5752H133.985V22.7588H136.964ZM151.382 15.4814V17.7227H143.788V25H141.415V7.33398H152.964V9.5752H143.788V15.4814H151.382ZM170.282 7.33398L163.506 17.749V25H160.948V18.0918L154.172 7.33398H157.019L162.187 15.666L167.434 7.33398H170.282Z" fill="#73C1C6"/>
<defs>
<linearGradient id="paint0_linear_344_2" x1="-6.6771" y1="-6.35627" x2="28.1596" y2="44.3349" gradientUnits="userSpaceOnUse">
<stop stop-color="#BB46BD"/>
<stop offset="0.914" stop-color="#463E9F"/>
<stop offset="1" stop-color="#423E9E"/>
</linearGradient>
</defs>
</svg>
